<svg width="203" height="106" viewBox="0 0 203 106" fill="none" xmlns="http://www.w3.org/2000/svg">
<path d="M75.4597 27.6883C74.0718 26.305 72.2802 25.3987 70.3436 25.1001L52.2654 22.2648C45.9163 21.2938 39.4232 22.3789 33.7348 25.3614L17.5913 33.9119C15.8593 34.8311 14.4603 36.2719 13.5924 38.0302C12.7245 39.7886 12.4318 41.7754 12.7556 43.7093L15.825 62.0769C16.6502 67.0338 18.7213 71.6998 21.8438 75.637C24.9663 79.5742 29.0379 82.6536 33.6765 84.5861L49.2352 91.1145C50.859 91.7682 52.6315 91.9614 54.3579 91.6729C56.0843 91.3844 57.6977 90.6254 59.0207 89.4793L71.6149 78.2463C75.3722 74.91 78.2204 70.6741 79.8925 65.9357C81.5646 61.1973 82.0056 56.1119 81.1743 51.1564L78.1055 32.7923C77.7843 30.855 76.8561 29.0691 75.4597 27.6883ZM60.4623 54.999L36.668 58.9752C35.7792 59.1238 34.8677 58.9131 34.1342 58.3896C33.4007 57.8662 32.9051 57.0727 32.7566 56.1839C32.6081 55.295 32.8187 54.3836 33.3422 53.6501C33.8657 52.9165 34.6591 52.421 35.5479 52.2725L59.3422 48.2962C60.2171 48.1788 61.1033 48.4063 61.8135 48.9305C62.5236 49.4547 63.0021 50.2347 63.1475 51.1053C63.293 51.9759 63.0942 52.869 62.5931 53.5957C62.0919 54.3223 61.3278 54.8256 60.4623 54.999Z" fill="#6D6D6D"/>
<ellipse cx="47.8125" cy="54.1407" rx="21.7969" ry="11.25" fill="#6D6D6D"/>
<path d="M65.3203 68.2813H46.8984L43.9453 77H31.3594L49.2188 27.6407H63.1406L81 77H68.2734L65.3203 68.2813ZM62.2266 59L56.1094 40.9297L50.0625 59H62.2266Z" fill="#EEEEEE"/>
<path d="M88.8188 64.5532H95.1188V68.2657H84.0094V48.5219H88.8188V64.5532ZM102.222 52.375V56.3688H108.663V60.0813H102.222V64.4125H109.506V68.2657H97.4127V48.5219H109.506V52.375H102.222ZM122.698 68.2657L118.591 60.8125H117.438V68.2657H112.629V48.5219H120.701C122.257 48.5219 123.579 48.7938 124.666 49.3375C125.773 49.8813 126.598 50.6313 127.141 51.5875C127.685 52.525 127.957 53.575 127.957 54.7375C127.957 56.05 127.582 57.2219 126.832 58.2532C126.101 59.2844 125.013 60.0157 123.569 60.4469L128.126 68.2657H122.698ZM117.438 57.4094H120.419C121.301 57.4094 121.957 57.1938 122.388 56.7625C122.838 56.3313 123.063 55.7219 123.063 54.9344C123.063 54.1844 122.838 53.5938 122.388 53.1625C121.957 52.7313 121.301 52.5157 120.419 52.5157H117.438V57.4094ZM145.179 48.5219V52.375H139.948V68.2657H135.138V52.375H129.907V48.5219H145.179ZM159.883 64.7782H152.515L151.333 68.2657H146.299L153.443 48.5219H159.011L166.155 68.2657H161.065L159.883 64.7782ZM158.646 61.0657L156.199 53.8375L153.78 61.0657H158.646ZM183.376 54.8782C183.376 56.0219 183.114 57.0719 182.589 58.0282C182.064 58.9657 181.258 59.725 180.17 60.3063C179.083 60.8875 177.733 61.1782 176.12 61.1782H173.139V68.2657H168.329V48.5219H176.12C177.695 48.5219 179.026 48.7938 180.114 49.3375C181.201 49.8813 182.017 50.6313 182.561 51.5875C183.104 52.5438 183.376 53.6407 183.376 54.8782ZM175.754 57.3532C176.673 57.3532 177.358 57.1375 177.808 56.7063C178.258 56.275 178.483 55.6657 178.483 54.8782C178.483 54.0907 178.258 53.4813 177.808 53.05C177.358 52.6188 176.673 52.4032 175.754 52.4032H173.139V57.3532H175.754ZM200.927 54.8782C200.927 56.0219 200.664 57.0719 200.139 58.0282C199.614 58.9657 198.808 59.725 197.721 60.3063C196.633 60.8875 195.283 61.1782 193.671 61.1782H190.689V68.2657H185.88V48.5219H193.671C195.246 48.5219 196.577 48.7938 197.664 49.3375C198.752 49.8813 199.568 50.6313 200.111 51.5875C200.655 52.5438 200.927 53.6407 200.927 54.8782ZM193.305 57.3532C194.224 57.3532 194.908 57.1375 195.358 56.7063C195.808 56.275 196.033 55.6657 196.033 54.8782C196.033 54.0907 195.808 53.4813 195.358 53.05C194.908 52.6188 194.224 52.4032 193.305 52.4032H190.689V57.3532H193.305Z" fill="#EEEEEE"/>
</svg>
