<svg width="213" height="111" viewBox="0 0 213 111" fill="none" xmlns="http://www.w3.org/2000/svg">
<path d="M79.2327 29.0727C77.7754 27.6203 75.8942 26.6686 73.8608 26.355L54.8786 23.378C48.2121 22.3585 41.3943 23.4978 35.4216 26.6295L18.4709 35.6074C16.6522 36.5726 15.1832 38.0854 14.272 39.9317C13.3607 41.778 13.0534 43.8641 13.3934 45.8947L16.6163 65.1807C17.4827 70.3854 19.6573 75.2847 22.9359 79.4188C26.2146 83.5529 30.4897 86.7862 35.3603 88.8154L51.697 95.6702C53.4019 96.3566 55.263 96.5594 57.0758 96.2565C58.8885 95.9536 60.5826 95.1566 61.9717 93.9532L75.1956 82.1586C79.1408 78.6555 82.1314 74.2077 83.8871 69.2325C85.6428 64.2572 86.1059 58.9175 85.233 53.7142L82.0108 34.4319C81.6735 32.3977 80.6989 30.5225 79.2327 29.0727ZM63.4854 57.7489L38.5014 61.924C37.5681 62.0799 36.6111 61.8587 35.8409 61.3091C35.0707 60.7594 34.5504 59.9263 34.3944 58.9931C34.2384 58.0598 34.4596 57.1028 35.0093 56.3325C35.5589 55.5623 36.392 55.042 37.3253 54.8861L62.3093 50.711C63.2279 50.5877 64.1584 50.8266 64.9041 51.377C65.6498 51.9275 66.1521 52.7464 66.3049 53.6605C66.4577 54.5747 66.2489 55.5124 65.7227 56.2754C65.1965 57.0384 64.3942 57.5668 63.4854 57.7489Z" fill="#092630"/>
<ellipse cx="50.2031" cy="56.8477" rx="22.8867" ry="11.8125" fill="#092630"/>
<path d="M68.5863 71.8453H49.2434L46.1426 81H32.9273L51.6797 29.1727H66.2977L85.05 81H71.6871L68.5863 71.8453ZM65.3379 62.1L58.9148 43.1262L52.5656 62.1H65.3379Z" fill="#EEEEEE"/>
<path d="M93.2597 67.2308H99.8747V71.1289H88.2098V50.398H93.2597V67.2308ZM107.333 54.4438V58.6372H114.096V62.5353H107.333V67.0831H114.982V71.1289H102.283V50.398H114.982V54.4438H107.333ZM128.832 71.1289L124.521 63.3031H123.31V71.1289H118.26V50.398H126.736C128.37 50.398 129.758 50.6834 130.9 51.2544C132.061 51.8253 132.927 52.6128 133.498 53.6169C134.069 54.6012 134.355 55.7037 134.355 56.9244C134.355 58.3025 133.961 59.533 133.173 60.6158C132.406 61.6986 131.264 62.4664 129.748 62.9192L134.532 71.1289H128.832ZM123.31 59.7298H126.44C127.366 59.7298 128.055 59.5034 128.508 59.0506C128.98 58.5978 129.216 57.958 129.216 57.1311C129.216 56.3436 128.98 55.7234 128.508 55.2706C128.055 54.8178 127.366 54.5914 126.44 54.5914H123.31V59.7298ZM152.438 50.398V54.4438H146.945V71.1289H141.895V54.4438H136.403V50.398H152.438ZM167.878 67.467H160.14L158.9 71.1289H153.614L161.115 50.398H166.962L174.463 71.1289H169.118L167.878 67.467ZM166.578 63.5689L164.009 55.9794L161.469 63.5689H166.578ZM192.545 57.072C192.545 58.273 192.27 59.3755 191.718 60.3795C191.167 61.3639 190.32 62.1612 189.179 62.7716C188.037 63.3819 186.619 63.687 184.926 63.687H181.796V71.1289H176.746V50.398H184.926C186.58 50.398 187.978 50.6834 189.12 51.2544C190.261 51.8253 191.118 52.6128 191.689 53.6169C192.26 54.6209 192.545 55.7727 192.545 57.072ZM184.542 59.6708C185.507 59.6708 186.225 59.4444 186.698 58.9916C187.17 58.5387 187.407 57.8989 187.407 57.072C187.407 56.2452 187.17 55.6053 186.698 55.1525C186.225 54.6997 185.507 54.4733 184.542 54.4733H181.796V59.6708H184.542ZM210.973 57.072C210.973 58.273 210.698 59.3755 210.146 60.3795C209.595 61.3639 208.749 62.1612 207.607 62.7716C206.465 63.3819 205.047 63.687 203.354 63.687H200.224V71.1289H195.174V50.398H203.354C205.008 50.398 206.406 50.6834 207.548 51.2544C208.69 51.8253 209.546 52.6128 210.117 53.6169C210.688 54.6209 210.973 55.7727 210.973 57.072ZM202.97 59.6708C203.935 59.6708 204.654 59.4444 205.126 58.9916C205.599 58.5387 205.835 57.8989 205.835 57.072C205.835 56.2452 205.599 55.6053 205.126 55.1525C204.654 54.6997 203.935 54.4733 202.97 54.4733H200.224V59.6708H202.97Z" fill="#EEEEEE"/>
</svg>
