<svg width="21" height="21" viewBox="0 0 21 21" fill="none" xmlns="http://www.w3.org/2000/svg">
<path d="M13.3966 20.0949L6.6983 17.7505L1.50712 19.76C1.13499 19.9088 0.790771 19.8672 0.474463 19.6349C0.158154 19.4027 0 19.0909 0 18.6994V3.07005C0 2.82817 0.06996 2.6142 0.20988 2.42813C0.3498 2.24207 0.540329 2.10252 0.781468 2.00949L6.6983 0L13.3966 2.3444L18.5878 0.334915C18.9599 0.186064 19.3041 0.228114 19.6204 0.461066C19.9367 0.694018 20.0949 1.00549 20.0949 1.39548V17.0248C20.0949 17.2667 20.0253 17.4807 19.8861 17.6668C19.747 17.8528 19.5561 17.9924 19.3134 18.0854L13.3966 20.0949ZM12.2802 17.3598V4.29807L7.81468 2.73514V15.7968L12.2802 17.3598Z" fill="white"/>
</svg>
