<svg width="98" height="98" viewBox="0 0 98 98" fill="none" xmlns="http://www.w3.org/2000/svg">
<path d="M75.4597 19.6883C74.0718 18.305 72.2802 17.3987 70.3436 17.1001L52.2654 14.2648C45.9163 13.2938 39.4232 14.3789 33.7348 17.3614L17.5913 25.9119C15.8593 26.8311 14.4603 28.2719 13.5924 30.0302C12.7245 31.7886 12.4318 33.7754 12.7556 35.7093L15.825 54.0769C16.6502 59.0338 18.7213 63.6998 21.8438 67.637C24.9663 71.5742 29.0379 74.6536 33.6765 76.5861L49.2352 83.1145C50.859 83.7682 52.6315 83.9614 54.3579 83.6729C56.0843 83.3844 57.6977 82.6254 59.0207 81.4793L71.6149 70.2463C75.3722 66.91 78.2204 62.6741 79.8925 57.9357C81.5646 53.1973 82.0056 48.1119 81.1743 43.1564L78.1055 24.7923C77.7843 22.855 76.8561 21.0691 75.4597 19.6883ZM60.4623 46.999L36.668 50.9752C35.7792 51.1238 34.8677 50.9131 34.1342 50.3896C33.4007 49.8662 32.9051 49.0727 32.7566 48.1839C32.6081 47.295 32.8187 46.3836 33.3422 45.6501C33.8657 44.9165 34.6591 44.421 35.5479 44.2725L59.3422 40.2962C60.2171 40.1788 61.1033 40.4063 61.8135 40.9305C62.5236 41.4547 63.0021 42.2347 63.1475 43.1053C63.293 43.9759 63.0942 44.869 62.5931 45.5957C62.0919 46.3223 61.3278 46.8256 60.4623 46.999Z" fill="#6D6D6D"/>
<ellipse cx="47.8125" cy="46.1407" rx="21.7969" ry="11.25" fill="#6D6D6D"/>
</svg>
