<svg width="28" height="29" viewBox="0 0 28 29" fill="none" xmlns="http://www.w3.org/2000/svg">
<path d="M23.2408 3.84741C22.7473 3.35558 22.1103 3.03331 21.4217 2.92714L14.9939 1.91906C12.7365 1.57382 10.4278 1.95962 8.40526 3.02008L2.66535 6.06023C2.0495 6.38706 1.55208 6.89934 1.24351 7.52453C0.934936 8.14972 0.830853 8.85614 0.945997 9.54376L2.03733 16.0745C2.33074 17.8369 3.0671 19.4959 4.17732 20.8958C5.28755 22.2957 6.73523 23.3906 8.38452 24.0778L13.9165 26.3989C14.4938 26.6314 15.1241 26.7001 15.7379 26.5975C16.3517 26.4949 16.9254 26.225 17.3958 25.8175L21.8737 21.8236C23.2096 20.6374 24.2224 19.1312 24.8169 17.4465C25.4114 15.7617 25.5682 13.9536 25.2726 12.1916L24.1815 5.66217C24.0673 4.97334 23.7373 4.33836 23.2408 3.84741ZM17.9084 13.5579L9.44817 14.9716C9.13214 15.0245 8.80807 14.9496 8.54726 14.7634C8.28645 14.5773 8.11026 14.2952 8.05744 13.9792C8.00463 13.6631 8.07953 13.3391 8.26565 13.0783C8.45178 12.8174 8.73389 12.6413 9.04992 12.5884L17.5101 11.1747C17.8212 11.1329 18.1363 11.2138 18.3888 11.4002C18.6413 11.5866 18.8114 11.8639 18.8631 12.1734C18.9148 12.483 18.8441 12.8005 18.666 13.0589C18.4878 13.3173 18.2161 13.4962 17.9084 13.5579Z" fill="#3D737F"/>
<ellipse cx="13.4109" cy="13.2527" rx="7.75" ry="4" fill="#3D737F"/>
</svg>
